<svg class="letter" width="76.367" height="74.268" viewBox="0 0 76.367 74.268"
     xmlns="http://www.w3.org/2000/svg">
    <g id="svgGroup" stroke-linecap="round" fill-rule="evenodd" font-size="9pt" stroke="#000"
       stroke-width="0.25mm" fill="none" style="stroke:#FA787A;stroke-width:0.25mm;fill:#FA787A">
        <path
                d="M 76.367 37.696 L 76.367 72.364 L 72.852 72.364 L 72.852 37.696 A 36.571 36.571 0 0 0 71.259 26.752 A 32.27 32.27 0 0 0 68.213 19.898 Q 63.575 12.061 55.567 7.789 A 36.646 36.646 0 0 0 40.283 3.592 A 43.918 43.918 0 0 0 37.696 3.516 A 34.035 34.035 0 0 0 20.362 8.057 Q 12.5 12.598 8.008 20.338 A 33.017 33.017 0 0 0 3.516 37.208 A 33.615 33.615 0 0 0 5.445 48.609 A 32.229 32.229 0 0 0 8.766 55.382 A 28.472 28.472 0 0 0 10.718 58.033 A 36.103 36.103 0 0 0 18.433 64.991 A 34.716 34.716 0 0 0 27.857 69.434 A 35.639 35.639 0 0 0 38.135 70.948 A 27.7 27.7 0 0 0 49.073 68.751 L 49.073 72.364 Q 43.653 74.268 37.94 74.268 A 40.183 40.183 0 0 1 26.441 72.608 Q 20.85 70.948 16.089 67.701 Q 11.328 64.454 7.715 60.035 Q 4.102 55.616 2.051 49.708 A 37.834 37.834 0 0 1 0 37.259 A 42.476 42.476 0 0 1 0 37.208 A 37.166 37.166 0 0 1 2.857 22.779 A 36.872 36.872 0 0 1 10.058 11.547 A 35.403 35.403 0 0 1 10.669 10.914 A 35.76 35.76 0 0 1 20.527 3.928 A 41.854 41.854 0 0 1 22.681 2.955 Q 29.737 0.001 37.696 0.001 A 42.623 42.623 0 0 1 51.076 2.076 A 40.141 40.141 0 0 1 52.93 2.735 A 38.269 38.269 0 0 1 62.525 8.031 A 35.033 35.033 0 0 1 65.235 10.328 A 33.853 33.853 0 0 1 72.585 20.478 A 39.697 39.697 0 0 1 73.389 22.266 Q 76.367 29.346 76.367 37.696 Z M 69.336 37.696 L 69.336 72.364 L 65.821 72.364 L 65.821 37.696 A 29.957 29.957 0 0 0 64.718 29.432 A 25.52 25.52 0 0 0 62.134 23.414 Q 58.448 17.188 52.051 13.868 A 29.744 29.744 0 0 0 40.685 10.669 A 36.148 36.148 0 0 0 37.696 10.548 Q 30.127 10.548 23.877 14.136 A 26.152 26.152 0 0 0 14.087 23.829 Q 10.547 29.932 10.547 37.208 Q 10.547 43.458 12.842 48.609 A 25.097 25.097 0 0 0 16.228 54.207 A 21.823 21.823 0 0 0 19.019 57.081 Q 22.901 60.401 27.857 62.232 A 29.699 29.699 0 0 0 38.233 64.063 A 27.138 27.138 0 0 0 49.073 61.768 L 49.073 65.333 A 32.688 32.688 0 0 1 42.021 67.161 A 28.26 28.26 0 0 1 38.135 67.432 A 32.253 32.253 0 0 1 22.608 63.624 A 29.318 29.318 0 0 1 11.28 52.833 A 29.358 29.358 0 0 1 7.036 37.746 A 34.855 34.855 0 0 1 7.032 37.208 A 29.627 29.627 0 0 1 9.4 25.489 A 30.24 30.24 0 0 1 15.321 16.382 A 29.001 29.001 0 0 1 15.821 15.87 A 29.542 29.542 0 0 1 24.141 10.069 A 34.373 34.373 0 0 1 25.586 9.425 A 31.03 31.03 0 0 1 37.696 7.032 Q 46.631 7.032 53.833 10.841 A 28.311 28.311 0 0 1 65.186 21.68 A 30.047 30.047 0 0 1 69.214 34.665 A 36.861 36.861 0 0 1 69.336 37.696 Z M 62.305 37.696 L 62.305 72.364 L 58.789 72.364 L 58.789 37.696 A 23.343 23.343 0 0 0 57.959 31.307 A 17.567 17.567 0 0 0 52.881 23.023 A 20.308 20.308 0 0 0 41.859 17.878 A 27.994 27.994 0 0 0 37.696 17.579 A 21.242 21.242 0 0 0 30.037 18.918 A 19.198 19.198 0 0 0 23.34 23.292 A 18.829 18.829 0 0 0 17.58 36.952 A 23.191 23.191 0 0 0 17.578 37.208 A 24.575 24.575 0 0 0 18.068 42.21 A 19.789 19.789 0 0 0 19.312 46.143 A 18.086 18.086 0 0 0 21.505 49.905 A 15.016 15.016 0 0 0 24.024 52.491 Q 27.002 54.883 30.689 56.129 Q 34.375 57.374 38.477 57.374 A 22.849 22.849 0 0 0 49.073 54.786 L 49.073 58.497 A 27.878 27.878 0 0 1 40.271 60.629 A 26.193 26.193 0 0 1 38.428 60.694 Q 33.594 60.694 29.248 59.205 A 24.248 24.248 0 0 1 21.485 54.859 A 19.016 19.016 0 0 1 17.154 49.613 A 23.334 23.334 0 0 1 16.065 47.437 A 23.788 23.788 0 0 1 14.239 40.474 A 29.507 29.507 0 0 1 14.063 37.208 A 22.205 22.205 0 0 1 20.663 21.038 A 26.804 26.804 0 0 1 20.874 20.826 A 22.886 22.886 0 0 1 37.384 14.065 A 29.416 29.416 0 0 1 37.696 14.063 A 29.651 29.651 0 0 1 45.094 14.954 A 24.933 24.933 0 0 1 50.293 16.92 Q 55.86 19.776 59.082 25.196 A 22.981 22.981 0 0 1 62.14 34.573 A 28.833 28.833 0 0 1 62.305 37.696 Z M 51.758 72.364 L 51.758 37.696 A 16.238 16.238 0 0 0 51.302 33.734 A 11.009 11.009 0 0 0 47.901 28.028 Q 44.043 24.61 37.696 24.61 A 12.844 12.844 0 0 0 28.467 28.321 A 12.607 12.607 0 0 0 25.544 32.468 A 11.963 11.963 0 0 0 24.61 37.208 A 18.868 18.868 0 0 0 24.805 39.985 A 14.349 14.349 0 0 0 25.391 42.457 A 13.059 13.059 0 0 0 26.28 44.52 A 9.879 9.879 0 0 0 27.515 46.314 A 11.367 11.367 0 0 0 30.713 48.853 A 14.703 14.703 0 0 0 34.595 50.294 A 19.568 19.568 0 0 0 37.751 50.704 A 22.925 22.925 0 0 0 38.916 50.733 Q 44.483 50.733 49.073 47.999 L 49.073 51.514 Q 44.336 54.005 38.867 54.005 A 23.112 23.112 0 0 1 33.828 53.469 A 20.721 20.721 0 0 1 32.251 53.052 A 17.963 17.963 0 0 1 26.612 50.172 A 12.378 12.378 0 0 1 23.56 46.759 A 15.8 15.8 0 0 1 22.583 44.898 A 16.945 16.945 0 0 1 21.321 40.45 A 22.273 22.273 0 0 1 21.094 37.208 A 15.76 15.76 0 0 1 22.853 29.757 A 16.191 16.191 0 0 1 25.83 25.782 Q 30.567 21.094 37.696 21.094 A 22.788 22.788 0 0 1 43.274 21.742 A 16.371 16.371 0 0 1 50.415 25.513 A 14.522 14.522 0 0 1 54.961 33.969 A 21.21 21.21 0 0 1 55.274 37.696 L 55.274 72.364 L 51.758 72.364 Z"
                vector-effect="non-scaling-stroke"/>
    </g>
</svg>