<?xml version="1.0" encoding="UTF-8" standalone="no"?>
<!DOCTYPE svg PUBLIC "-//W3C//DTD SVG 1.1//EN" "http://www.w3.org/Graphics/SVG/1.1/DTD/svg11.dtd">
<svg version="1.1" xmlns="http://www.w3.org/2000/svg" xmlns:xlink="http://www.w3.org/1999/xlink" preserveAspectRatio="xMidYMid meet" viewBox="87.23792630343522 86.26190476190467 104.00000000000003 103.99999999999991" width="100" height="100"><defs><path d="M188.24 137.26C188.24 164.86 165.83 187.26 138.24 187.26C110.64 187.26 88.24 164.86 88.24 137.26C88.24 109.67 110.64 87.26 138.24 87.26C165.83 87.26 188.24 109.67 188.24 137.26Z" id="dklpS0Ghr"></path><path d="M170.24 166.75L167.2 166.75C167.2 148.77 167.2 138.78 167.2 136.78C167.22 133.57 166.76 130.38 165.82 127.32C165.18 125.24 164.3 123.26 163.19 121.39C159.18 114.61 153.35 111.97 152.26 110.92C148.18 108.76 143.67 107.52 139.05 107.29C138.31 107.25 137.56 107.23 136.82 107.23C131.56 107.17 126.39 108.53 121.84 111.15C115.04 115.08 112.23 120.71 111.16 121.77C108.58 126.2 107.24 131.23 107.28 136.36C107.26 139.71 107.82 143.05 108.94 146.21C109.67 148.27 110.63 150.24 111.81 152.07C112.33 152.86 112.9 153.63 113.5 154.36C115.42 156.68 117.67 158.7 120.17 160.38C122.68 162.06 125.42 163.35 128.31 164.22C131.19 165.09 134.19 165.53 137.2 165.53C140.44 165.54 143.66 164.89 146.65 163.63C146.65 163.94 146.65 166.44 146.65 166.75C141.97 168.4 137.99 168.23 137.03 168.4C133.66 168.4 130.32 167.92 127.09 166.96C122.26 165.53 119.04 163.14 118.14 162.72C114.03 159.91 111.63 156.75 110.91 156.09C107.78 152.27 106.5 148.06 106.01 147.16C104.82 143.7 104.22 140.06 104.24 136.4C104.24 136.39 104.24 136.37 104.24 136.36C104.22 132.07 105.06 127.83 106.71 123.88C108.17 120.29 110.28 117 112.93 114.17C113.1 113.99 113.28 113.8 113.46 113.62C115.94 111.14 118.82 109.1 121.98 107.58C122.59 107.28 123.21 107 123.84 106.74C129.94 104.19 135.52 104.44 136.82 104.19C140.74 104.17 144.65 104.77 148.38 105.98C148.92 106.16 149.45 106.35 149.98 106.55C152.95 107.67 155.74 109.21 158.28 111.13C159.09 111.75 159.87 112.41 160.62 113.12C163.26 115.62 165.42 118.6 166.97 121.89C167.21 122.4 167.45 122.92 167.66 123.44C169.38 127.52 170.24 131.96 170.24 136.78L170.24 166.75ZM164.16 166.75L161.12 166.75C161.12 148.77 161.12 138.78 161.12 136.78C161.14 134.36 160.82 131.96 160.17 129.63C159.65 127.81 158.9 126.06 157.94 124.43C154.75 119.05 150.09 117 149.22 116.18C146.17 114.61 142.83 113.67 139.4 113.41C138.54 113.34 137.68 113.31 136.82 113.31C130.28 113.31 126.07 116.1 124.87 116.41C121.36 118.39 118.43 121.29 116.41 124.79C113.35 130.07 113.66 135.2 113.35 136.36C113.35 141.76 115.14 145.23 115.34 146.21C116.1 147.95 117.08 149.57 118.26 151.05C118.99 151.95 119.8 152.78 120.68 153.54C124.03 156.41 127.55 157.55 128.31 157.99C131.18 159.05 134.22 159.59 137.28 159.57C140.51 159.56 143.7 158.89 146.65 157.59C146.65 157.9 146.65 160.36 146.65 160.67C144.68 161.42 142.64 161.95 140.55 162.25C139.44 162.41 138.32 162.49 137.2 162.49C132.52 162.53 127.9 161.4 123.78 159.19C119.73 157.03 116.35 153.8 113.99 149.86C111.61 145.93 110.34 141.42 110.32 136.82C110.32 136.67 110.32 136.51 110.32 136.36C110.3 132.87 111 129.43 112.36 126.22C113.58 123.31 115.31 120.64 117.48 118.35C117.62 118.2 117.77 118.05 117.91 117.91C120 115.83 122.43 114.14 125.1 112.89C125.51 112.7 125.93 112.51 126.35 112.34C129.67 110.95 133.22 110.25 136.82 110.27C144.54 110.27 149.37 113.23 150.76 113.56C154.85 115.7 158.25 118.94 160.57 122.93C162.58 126.36 163.77 130.2 164.06 134.16C164.13 135.03 164.16 135.9 164.16 136.78C164.16 140.77 164.16 150.77 164.16 166.75ZM158.08 166.75L155.05 166.75C155.05 148.77 155.05 138.78 155.05 136.78C155.06 134.91 154.82 133.05 154.33 131.25C153.57 128.5 152.05 126.02 149.94 124.09C147.29 121.67 143.97 120.12 140.41 119.64C139.22 119.47 138.02 119.38 136.82 119.38C134.56 119.36 132.31 119.75 130.2 120.54C128.02 121.38 126.05 122.67 124.41 124.32C121.21 127.41 119.41 131.68 119.43 136.13C119.43 136.21 119.43 136.28 119.43 136.36C119.42 137.81 119.56 139.26 119.85 140.68C120.09 141.85 120.45 142.99 120.93 144.08C121.43 145.24 122.06 146.33 122.82 147.33C123.46 148.16 124.19 148.91 125 149.57C127.57 151.64 130.18 152.4 130.76 152.71C133.95 153.79 136.82 153.68 137.49 153.79C140.68 153.8 143.82 153.03 146.65 151.55C146.65 151.87 146.65 154.44 146.65 154.76C144.23 155.79 141.66 156.41 139.04 156.6C138.51 156.64 137.98 156.66 137.45 156.66C133.27 156.66 130.31 155.5 129.52 155.37C127.07 154.55 124.79 153.27 122.81 151.62C121.3 150.34 120.03 148.81 119.06 147.08C118.72 146.47 118.4 145.84 118.12 145.2C117.29 143.28 116.76 141.25 116.54 139.18C116.44 138.24 116.39 137.3 116.39 136.36C116.3 131.11 118.37 126.06 122.1 122.38C122.16 122.31 122.22 122.25 122.28 122.19C126.05 118.39 131.2 116.28 136.55 116.35C136.64 116.35 136.73 116.35 136.82 116.35C138.97 116.33 141.12 116.59 143.21 117.12C144.77 117.51 146.27 118.08 147.7 118.82C152.51 121.28 154.54 125.25 155.3 125.97C156.76 128.45 157.66 131.22 157.94 134.08C158.04 134.97 158.09 135.88 158.08 136.78C158.08 140.77 158.08 150.77 158.08 166.75ZM148.97 136.78C148.98 135.62 148.85 134.47 148.58 133.35C148.13 131.44 147.1 129.72 145.64 128.42C142.3 125.46 137.7 125.76 136.82 125.46C133.84 125.42 130.96 126.57 128.84 128.67C127.76 129.68 126.9 130.9 126.31 132.26C125.77 133.55 125.49 134.95 125.51 136.36C125.5 137.16 125.56 137.96 125.68 138.76C125.78 139.48 125.95 140.2 126.18 140.89C126.39 141.51 126.64 142.11 126.95 142.68C127.25 143.23 127.61 143.75 128.02 144.23C128.8 145.12 129.74 145.86 130.78 146.42C131.84 147 132.97 147.41 134.14 147.67C135.03 147.86 135.95 147.98 136.86 148.02C137.2 148.04 137.54 148.05 137.87 148.05C141.08 148.05 144 147.26 146.65 145.69C146.65 147.51 146.65 148.52 146.65 148.72C142.56 150.88 138.71 150.66 137.83 150.88C136.36 150.88 134.9 150.73 133.47 150.41C133.02 150.31 132.56 150.19 132.11 150.05C130.35 149.52 128.7 148.68 127.24 147.56C126.18 146.75 125.29 145.75 124.6 144.61C124.28 144.1 124 143.56 123.76 143C123.22 141.78 122.85 140.48 122.66 139.16C122.53 138.23 122.47 137.29 122.47 136.36C122.44 134.12 122.96 131.9 123.99 129.91C124.66 128.64 125.53 127.48 126.56 126.48C130.66 122.42 135.79 122.83 136.82 122.42C138.44 122.41 140.06 122.6 141.64 122.98C143.93 123.54 146.06 124.66 147.81 126.24C149.91 128.17 151.29 130.74 151.74 133.56C151.92 134.62 152.01 135.7 152.01 136.78C152.01 138.78 152.01 148.77 152.01 166.75L148.97 166.75C148.97 148.77 148.97 138.78 148.97 136.78Z" id="a1nXutnYq7"></path></defs><g><g><use xlink:href="#dklpS0Ghr" opacity="1" fill="#00a672" fill-opacity="1"></use></g><g><use xlink:href="#a1nXutnYq7" opacity="1" fill="#ffffff" fill-opacity="1"></use><g><use xlink:href="#a1nXutnYq7" opacity="1" fill-opacity="0" stroke="#ffffff" stroke-width="0.95" stroke-opacity="1"></use></g></g></g></svg>